<svg xmlns="http://www.w3.org/2000/svg" viewBox="0 0 1440 320"><path fill="#34d399" fill-opacity="1" d="M0,288L30,288C60,288,120,288,180,266.7C240,245,300,203,360,186.7C420,171,480,181,540,197.3C600,213,660,235,720,218.7C780,203,840,149,900,133.3C960,117,1020,139,1080,165.3C1140,192,1200,224,1260,245.3C1320,267,1380,277,1410,282.7L1440,288L1440,0L1410,0C1380,0,1320,0,1260,0C1200,0,1140,0,1080,0C1020,0,960,0,900,0C840,0,780,0,720,0C660,0,600,0,540,0C480,0,420,0,360,0C300,0,240,0,180,0C120,0,60,0,30,0L0,0Z"></path></svg>