<svg xmlns="http://www.w3.org/2000/svg" viewBox="0 0 478.36 432.8"><defs><style>.a,.d{fill:none;}.a,.b,.c,.d,.e,.f{stroke:#34d399;}.a,.c,.d,.e,.f{stroke-linecap:round;}.a,.f{stroke-linejoin:round;}.a,.c,.d,.f{stroke-width:20px;}.b,.c,.e,.f{fill:#34d399;}.b,.c,.d,.e{stroke-miterlimit:10;}.e{stroke-width:21px;}</style></defs><path class="a" d="M456.58,253.19c20.15-44.8,44.45-75.38,62.78-94.82,19.26-20.43,33.5-35.16,47.07-31.79,25.36,6.3,29.09,71.11,30.2,90.3a274.76,274.76,0,0,1-8.75,85.81" transform="translate(-133.81 -116.1)"/><path class="a" d="M289.4,253.19c-20.16-44.8-44.45-75.38-62.78-94.82-19.27-20.43-33.51-35.16-47.07-31.79-25.37,6.3-29.1,71.11-30.2,90.3a274.8,274.8,0,0,0,8.74,85.81" transform="translate(-133.81 -116.1)"/><circle class="b" cx="123.71" cy="255.14" r="31.42"/><line class="c" x1="10.49" y1="311.36" x2="35.46" y2="324.74"/><line class="c" x1="10.49" y1="412.56" x2="35.46" y2="399.19"/><line class="c" x1="10" y1="361.96" x2="35.95" y2="361.96"/><path class="d" d="M303,500.62c0,21.14,31.45,38.28,70.25,38.28s70.25-17.14,70.25-38.28" transform="translate(-133.81 -116.1)"/><circle class="b" cx="368.55" cy="255.14" r="31.42"/><line class="e" x1="227.63" y1="329.16" x2="251.2" y2="329.16"/><line class="e" x1="239.41" y1="343.3" x2="227.63" y2="329.16"/><line class="e" x1="251.2" y1="329.16" x2="239.41" y2="343.3"/><line class="c" x1="467.87" y1="311.36" x2="442.9" y2="324.74"/><line class="c" x1="467.87" y1="412.56" x2="442.9" y2="399.19"/><line class="c" x1="468.36" y1="361.96" x2="442.41" y2="361.96"/><line class="f" x1="155.59" y1="137.1" x2="322.77" y2="137.1"/></svg>