<svg xmlns="http://www.w3.org/2000/svg" viewBox="0 0 529.66 529.66"><defs><style>.a,.b,.e{fill:none;}.a,.b,.d,.e,.f,.g{stroke:#fd4a47;stroke-linecap:round;}.a,.d,.e,.f{stroke-miterlimit:10;}.a{stroke-width:10px;}.b,.g{stroke-linejoin:round;}.b,.d,.e,.g{stroke-width:20px;}.c{fill:#fd4a47;}.d,.f,.g{fill:#34d399;}.f{stroke-width:21px;}</style></defs><path class="a" d="M54,5H524.66a0,0,0,0,1,0,0V475.64a49,49,0,0,1-49,49H54a49,49,0,0,1-49-49V54A49,49,0,0,1,54,5Z"/><path class="b" d="M456.58,253.19c20.15-44.8,44.45-75.38,62.78-94.82,19.26-20.43,33.5-35.16,47.07-31.79,25.36,6.3,29.09,71.11,30.2,90.3a274.76,274.76,0,0,1-8.75,85.81" transform="translate(-108.16 -67.67)"/><path class="b" d="M289.4,253.19c-20.16-44.8-44.45-75.38-62.78-94.82-19.27-20.43-33.51-35.16-47.07-31.79-25.37,6.3-29.1,71.11-30.2,90.3a274.8,274.8,0,0,0,8.74,85.81" transform="translate(-108.16 -67.67)"/><circle class="c" cx="149.36" cy="303.57" r="31.42"/><line class="d" x1="36.14" y1="359.79" x2="61.11" y2="373.17"/><line class="d" x1="36.14" y1="460.99" x2="61.11" y2="447.62"/><line class="d" x1="35.65" y1="410.39" x2="61.6" y2="410.39"/><path class="e" d="M303,500.62c0,21.14,31.45,38.28,70.25,38.28s70.25-17.14,70.25-38.28" transform="translate(-108.16 -67.67)"/><circle class="c" cx="394.2" cy="303.57" r="31.42"/><line class="f" x1="253.28" y1="377.59" x2="276.85" y2="377.59"/><line class="f" x1="265.06" y1="391.73" x2="253.28" y2="377.59"/><line class="f" x1="276.85" y1="377.59" x2="265.06" y2="391.73"/><line class="d" x1="493.52" y1="359.79" x2="468.55" y2="373.17"/><line class="d" x1="493.52" y1="460.99" x2="468.55" y2="447.62"/><line class="d" x1="494.01" y1="410.39" x2="468.06" y2="410.39"/><line class="g" x1="181.24" y1="185.53" x2="348.42" y2="185.53"/></svg>