<svg xmlns="http://www.w3.org/2000/svg" viewBox="0 0 529.66 529.66"><defs><style>.a,.d,.f,.g{fill:#34d399;}.a{stroke:#34d399;stroke-width:10px;}.a,.b,.d,.e,.f,.g{stroke-linecap:round;}.a,.d,.e,.f{stroke-miterlimit:10;}.b,.e{fill:none;}.b,.d,.e,.f,.g{stroke:#fff;}.b,.g{stroke-linejoin:round;}.b,.d,.e,.g{stroke-width:20px;}.c{fill:#fff;}.f{stroke-width:21px;}</style></defs><path class="a" d="M54,5H524.66a0,0,0,0,1,0,0V475.64a49,49,0,0,1-49,49H54a49,49,0,0,1-49-49V54A49,49,0,0,1,54,5Z"/><path class="b" d="M488.06,230c20.16-44.8,44.45-75.39,62.78-94.82,19.27-20.43,33.51-35.17,47.07-31.8,25.37,6.31,29.1,71.12,30.2,90.3a274.84,274.84,0,0,1-8.74,85.82" transform="translate(-139.64 -44.46)"/><path class="b" d="M320.88,230c-20.15-44.8-44.45-75.39-62.78-94.82C238.84,114.74,224.6,100,211,103.37c-25.36,6.31-29.09,71.12-30.2,90.3a274.79,274.79,0,0,0,8.75,85.82" transform="translate(-139.64 -44.46)"/><circle class="c" cx="149.36" cy="303.57" r="31.42"/><line class="d" x1="36.14" y1="359.79" x2="61.11" y2="373.17"/><line class="d" x1="36.14" y1="460.99" x2="61.11" y2="447.62"/><line class="d" x1="35.65" y1="410.39" x2="61.6" y2="410.39"/><path class="e" d="M334.45,477.42c0,21.14,31.46,38.27,70.26,38.27S475,498.56,475,477.42" transform="translate(-139.64 -44.46)"/><circle class="c" cx="394.2" cy="303.57" r="31.42"/><line class="f" x1="253.28" y1="377.59" x2="276.85" y2="377.59"/><line class="f" x1="265.06" y1="391.73" x2="253.28" y2="377.59"/><line class="f" x1="276.85" y1="377.59" x2="265.06" y2="391.73"/><line class="d" x1="493.52" y1="359.79" x2="468.55" y2="373.17"/><line class="d" x1="493.52" y1="460.99" x2="468.55" y2="447.62"/><line class="d" x1="494.01" y1="410.39" x2="468.06" y2="410.39"/><line class="g" x1="181.24" y1="185.53" x2="348.42" y2="185.53"/></svg>