<svg width="100%" height="100%" id="svg" viewBox="0 0 1440 600" xmlns="http://www.w3.org/2000/svg" class="transition duration-300 ease-in-out delay-150"><path d="M 0,600 C 0,600 0,200 0,200 C 113.46666666666664,218 226.93333333333328,236 394,241 C 561.0666666666667,246 781.7333333333333,238.00000000000003 965,229 C 1148.2666666666667,219.99999999999997 1294.1333333333332,210 1440,200 C 1440,200 1440,600 1440,600 Z" stroke="none" stroke-width="0" fill="#00d08488" class="transition-all duration-300 ease-in-out delay-150 path-0"></path><path d="M 0,600 C 0,600 0,400 0,400 C 146.2666666666667,415.8666666666667 292.5333333333334,431.7333333333333 453,419 C 613.4666666666666,406.2666666666667 788.1333333333334,364.93333333333334 955,357 C 1121.8666666666666,349.06666666666666 1280.9333333333334,374.5333333333333 1440,400 C 1440,400 1440,600 1440,600 Z" stroke="none" stroke-width="0" fill="#00d084ff" class="transition-all duration-300 ease-in-out delay-150 path-1"></path></svg>